<mxfile host="app.diagrams.net" modified="2024-03-07T16:14:16.575Z" agent="Mozilla/5.0 (Windows NT 10.0; Win64; x64) AppleWebKit/537.36 (KHTML, like Gecko) Chrome/122.0.0.0 Safari/537.36" etag="1SZk8j4MZr00pBYW9saq" version="24.0.2" type="device">
  <diagram name="PÃ¡gina-1" id="dUacod-UvGrpVMlwzByS">
    <mxGraphModel dx="2726" dy="1863" grid="1" gridSize="10" guides="1" tooltips="1" connect="1" arrows="1" fold="1" page="1" pageScale="1" pageWidth="827" pageHeight="1169" math="0" shadow="0">
      <root>
        <mxCell id="0" />
        <mxCell id="1" parent="0" />
        <mxCell id="YNee3jmiKFVP3PC7Kqb_-9" style="edgeStyle=orthogonalEdgeStyle;rounded=0;orthogonalLoop=1;jettySize=auto;html=1;entryX=0.25;entryY=1;entryDx=0;entryDy=0;" parent="1" source="juQ6OJfFrcmh1SUFTUH2-3" target="juQ6OJfFrcmh1SUFTUH2-8" edge="1">
          <mxGeometry relative="1" as="geometry">
            <mxPoint x="612.0000000000002" y="280" as="targetPoint" />
          </mxGeometry>
        </mxCell>
        <mxCell id="juQ6OJfFrcmh1SUFTUH2-3" value="OvernightPackage" style="swimlane;whiteSpace=wrap;html=1;fillColor=#6d8764;strokeColor=#3A5431;rounded=1;fontColor=#ffffff;" parent="1" vertex="1">
          <mxGeometry x="400" y="325" width="280" height="60" as="geometry" />
        </mxCell>
        <mxCell id="juQ6OJfFrcmh1SUFTUH2-7" value="&lt;b&gt;Methods (public)&lt;/b&gt;&lt;div&gt;float calculateCost() override&lt;br&gt;&lt;/div&gt;" style="text;html=1;align=left;verticalAlign=middle;resizable=0;points=[];autosize=1;strokeColor=none;fillColor=none;" parent="juQ6OJfFrcmh1SUFTUH2-3" vertex="1">
          <mxGeometry y="20" width="180" height="40" as="geometry" />
        </mxCell>
        <mxCell id="juQ6OJfFrcmh1SUFTUH2-8" value="Package" style="swimlane;whiteSpace=wrap;html=1;fillColor=#d5e8d4;strokeColor=#82b366;rounded=1;" parent="1" vertex="1">
          <mxGeometry x="516" y="38.5" width="280" height="223" as="geometry" />
        </mxCell>
        <mxCell id="juQ6OJfFrcmh1SUFTUH2-9" value="&lt;div&gt;&lt;b&gt;Attributes (private)&lt;/b&gt;&lt;/div&gt;float weight&amp;nbsp;&lt;div&gt;&lt;span style=&quot;background-color: initial;&quot;&gt;Customer* sender&lt;/span&gt;&lt;/div&gt;&lt;div&gt;&lt;span style=&quot;background-color: initial;&quot;&gt;Customer* receiver&lt;/span&gt;&lt;/div&gt;" style="text;html=1;align=left;verticalAlign=middle;resizable=0;points=[];autosize=1;strokeColor=none;fillColor=none;" parent="juQ6OJfFrcmh1SUFTUH2-8" vertex="1">
          <mxGeometry y="20" width="130" height="70" as="geometry" />
        </mxCell>
        <mxCell id="juQ6OJfFrcmh1SUFTUH2-10" value="&lt;div&gt;&lt;b&gt;Getters and setters (public)&lt;/b&gt;&lt;/div&gt;&lt;div&gt;float getWeight()&lt;/div&gt;&lt;div&gt;&lt;div&gt;void setWeight(float weight)&lt;/div&gt;&lt;div&gt;Customer* getSender()&lt;br&gt;&lt;/div&gt;&lt;/div&gt;&lt;div&gt;void setSender(Customer* sender)&lt;br&gt;&lt;/div&gt;&lt;div&gt;Customer* getReceiver()&lt;br&gt;&lt;/div&gt;&lt;div&gt;void setReceiver(Customer* receiver)&lt;/div&gt;" style="text;html=1;align=left;verticalAlign=middle;resizable=0;points=[];autosize=1;strokeColor=none;fillColor=none;" parent="juQ6OJfFrcmh1SUFTUH2-8" vertex="1">
          <mxGeometry y="80" width="220" height="110" as="geometry" />
        </mxCell>
        <mxCell id="juQ6OJfFrcmh1SUFTUH2-11" value="&lt;b&gt;Methods (public)&lt;/b&gt;&lt;div&gt;virtual float calculateCost() = 0&lt;br&gt;&lt;/div&gt;" style="text;html=1;align=left;verticalAlign=middle;resizable=0;points=[];autosize=1;strokeColor=none;fillColor=none;" parent="juQ6OJfFrcmh1SUFTUH2-8" vertex="1">
          <mxGeometry y="183" width="190" height="40" as="geometry" />
        </mxCell>
        <mxCell id="YNee3jmiKFVP3PC7Kqb_-7" style="edgeStyle=orthogonalEdgeStyle;rounded=0;orthogonalLoop=1;jettySize=auto;html=1;entryX=0.75;entryY=1;entryDx=0;entryDy=0;" parent="1" source="juQ6OJfFrcmh1SUFTUH2-12" target="juQ6OJfFrcmh1SUFTUH2-8" edge="1">
          <mxGeometry relative="1" as="geometry" />
        </mxCell>
        <mxCell id="juQ6OJfFrcmh1SUFTUH2-12" value="TwoDayPackage" style="swimlane;whiteSpace=wrap;html=1;startSize=23;fillColor=#6d8764;strokeColor=#3A5431;rounded=1;fontColor=#ffffff;" parent="1" vertex="1">
          <mxGeometry x="572" y="420" width="280" height="60" as="geometry" />
        </mxCell>
        <mxCell id="juQ6OJfFrcmh1SUFTUH2-15" value="&lt;b&gt;Methods (public)&lt;/b&gt;&lt;div&gt;float calculateCost() override&lt;br&gt;&lt;/div&gt;" style="text;html=1;align=left;verticalAlign=middle;resizable=0;points=[];autosize=1;strokeColor=none;fillColor=none;" parent="juQ6OJfFrcmh1SUFTUH2-12" vertex="1">
          <mxGeometry y="20" width="180" height="40" as="geometry" />
        </mxCell>
        <mxCell id="YNee3jmiKFVP3PC7Kqb_-4" style="edgeStyle=orthogonalEdgeStyle;rounded=0;orthogonalLoop=1;jettySize=auto;html=1;entryX=0.25;entryY=1;entryDx=0;entryDy=0;endArrow=block;endFill=0;" parent="1" source="juQ6OJfFrcmh1SUFTUH2-21" target="juQ6OJfFrcmh1SUFTUH2-23" edge="1">
          <mxGeometry relative="1" as="geometry" />
        </mxCell>
        <mxCell id="juQ6OJfFrcmh1SUFTUH2-21" value="PrivateCustomer" style="swimlane;whiteSpace=wrap;html=1;fillColor=#d0cee2;strokeColor=#56517e;rounded=1;" parent="1" vertex="1">
          <mxGeometry x="880" y="280" width="280" height="170" as="geometry" />
        </mxCell>
        <mxCell id="juQ6OJfFrcmh1SUFTUH2-30" value="&lt;div style=&quot;color: rgb(0, 0, 0); font-family: Helvetica; font-size: 12px; font-style: normal; font-variant-ligatures: normal; font-variant-caps: normal; font-weight: 400; letter-spacing: normal; orphans: 2; text-align: left; text-indent: 0px; text-transform: none; widows: 2; word-spacing: 0px; -webkit-text-stroke-width: 0px; white-space: nowrap; background-color: rgb(251, 251, 251); text-decoration-thickness: initial; text-decoration-style: initial; text-decoration-color: initial;&quot;&gt;&lt;b&gt;Attributes&amp;nbsp;&lt;/b&gt;&lt;/div&gt;&lt;span style=&quot;color: rgb(0, 0, 0); font-family: Helvetica; font-size: 12px; font-style: normal; font-variant-ligatures: normal; font-variant-caps: normal; font-weight: 400; letter-spacing: normal; orphans: 2; text-align: left; text-indent: 0px; text-transform: none; widows: 2; word-spacing: 0px; -webkit-text-stroke-width: 0px; white-space: nowrap; background-color: rgb(251, 251, 251); text-decoration-thickness: initial; text-decoration-style: initial; text-decoration-color: initial; display: inline !important; float: none;&quot;&gt;&lt;span&gt;Name name&amp;nbsp;&lt;/span&gt;&lt;/span&gt;&lt;b style=&quot;color: rgb(0, 0, 0); font-family: Helvetica; font-size: 12px; font-style: normal; font-variant-ligatures: normal; font-variant-caps: normal; letter-spacing: normal; orphans: 2; text-align: left; text-indent: 0px; text-transform: none; widows: 2; word-spacing: 0px; -webkit-text-stroke-width: 0px; white-space: nowrap; background-color: rgb(251, 251, 251); text-decoration-thickness: initial; text-decoration-style: initial; text-decoration-color: initial;&quot;&gt;(private)&lt;/b&gt;&lt;span style=&quot;color: rgb(0, 0, 0); font-family: Helvetica; font-size: 12px; font-style: normal; font-variant-ligatures: normal; font-variant-caps: normal; font-weight: 400; letter-spacing: normal; orphans: 2; text-align: left; text-indent: 0px; text-transform: none; widows: 2; word-spacing: 0px; -webkit-text-stroke-width: 0px; white-space: nowrap; background-color: rgb(251, 251, 251); text-decoration-thickness: initial; text-decoration-style: initial; text-decoration-color: initial; display: inline !important; float: none;&quot;&gt;&amp;nbsp;&lt;br&gt;&lt;/span&gt;&lt;div style=&quot;orphans: 2; text-align: left; text-indent: 0px; widows: 2; background-color: rgb(251, 251, 251); text-decoration-thickness: initial; text-decoration-style: initial; text-decoration-color: initial;&quot;&gt;&lt;span style=&quot;background-color: initial; text-wrap: nowrap;&quot;&gt;&amp;nbsp;&lt;/span&gt;&lt;/div&gt;" style="text;whiteSpace=wrap;html=1;" parent="juQ6OJfFrcmh1SUFTUH2-21" vertex="1">
          <mxGeometry y="20" width="230" height="40" as="geometry" />
        </mxCell>
        <mxCell id="juQ6OJfFrcmh1SUFTUH2-31" value="&lt;div&gt;&lt;b&gt;Getters and setters (public)&lt;/b&gt;&lt;/div&gt;&lt;div&gt;&lt;div&gt;Name getName()&lt;br&gt;&lt;/div&gt;&lt;div&gt;void setName(Name name)&lt;/div&gt;&lt;/div&gt;&lt;div&gt;&lt;br style=&quot;&quot;&gt;&lt;/div&gt;" style="text;html=1;align=left;verticalAlign=middle;resizable=0;points=[];autosize=1;strokeColor=none;fillColor=none;" parent="juQ6OJfFrcmh1SUFTUH2-21" vertex="1">
          <mxGeometry y="50" width="180" height="70" as="geometry" />
        </mxCell>
        <mxCell id="juQ6OJfFrcmh1SUFTUH2-22" value="&lt;b&gt;Methods (public)&lt;/b&gt;&lt;div&gt;&lt;div&gt;std::list&amp;lt;std::string&amp;gt;&amp;amp; toStringName&lt;/div&gt;&lt;div&gt;&amp;nbsp; &amp;nbsp; &amp;nbsp; &amp;nbsp; &amp;nbsp; &amp;nbsp; (std::list&amp;lt;std::string&amp;gt;&amp;amp; customerData)&lt;/div&gt;&lt;/div&gt;&lt;div&gt;std::list&amp;lt;std::string&amp;gt; toString() override&lt;br&gt;&lt;/div&gt;" style="text;html=1;align=left;verticalAlign=middle;resizable=0;points=[];autosize=1;strokeColor=none;fillColor=none;" parent="juQ6OJfFrcmh1SUFTUH2-21" vertex="1">
          <mxGeometry y="100" width="260" height="70" as="geometry" />
        </mxCell>
        <mxCell id="juQ6OJfFrcmh1SUFTUH2-23" value="Customer" style="swimlane;whiteSpace=wrap;html=1;fillColor=#b1ddf0;strokeColor=#10739e;swimlaneFillColor=none;rounded=1;glass=0;shadow=0;textShadow=0;" parent="1" vertex="1">
          <mxGeometry x="1150" y="40" width="280" height="190" as="geometry" />
        </mxCell>
        <mxCell id="juQ6OJfFrcmh1SUFTUH2-24" value="&lt;div&gt;&lt;b&gt;Attributes&amp;nbsp;&lt;/b&gt;&lt;/div&gt;Address address &lt;b&gt;(private)&lt;/b&gt;&amp;nbsp;&lt;div&gt;Customer(Address address) &lt;b&gt;(public)&lt;/b&gt;&lt;br&gt;&lt;/div&gt;" style="text;html=1;align=left;verticalAlign=middle;resizable=0;points=[];autosize=1;strokeColor=none;fillColor=none;" parent="juQ6OJfFrcmh1SUFTUH2-23" vertex="1">
          <mxGeometry y="25" width="220" height="60" as="geometry" />
        </mxCell>
        <mxCell id="juQ6OJfFrcmh1SUFTUH2-25" value="&lt;div&gt;&lt;b&gt;Getters and setters (public)&lt;/b&gt;&lt;/div&gt;&lt;div&gt;&lt;div&gt;Address getAddress()&lt;br&gt;&lt;/div&gt;&lt;div&gt;void setAddress(Address address)&lt;/div&gt;&lt;/div&gt;&lt;div&gt;&lt;br&gt;&lt;/div&gt;" style="text;html=1;align=left;verticalAlign=middle;resizable=0;points=[];autosize=1;strokeColor=none;fillColor=none;" parent="juQ6OJfFrcmh1SUFTUH2-23" vertex="1">
          <mxGeometry y="75" width="210" height="70" as="geometry" />
        </mxCell>
        <mxCell id="juQ6OJfFrcmh1SUFTUH2-26" value="&lt;b&gt;Methods (public)&lt;/b&gt;&lt;div&gt;&lt;div&gt;std::list&amp;lt;std::string&amp;gt;&amp;amp; toStringAddress&lt;/div&gt;&lt;div&gt;&amp;nbsp; &amp;nbsp; &amp;nbsp; &amp;nbsp; &amp;nbsp; &amp;nbsp; (std::list&amp;lt;std::string&amp;gt;&amp;amp; customerData)&lt;/div&gt;&lt;div&gt;&lt;span style=&quot;background-color: initial;&quot;&gt;virtual std::list&amp;lt;std::string&amp;gt; toString() = 0&lt;/span&gt;&lt;/div&gt;&lt;/div&gt;" style="text;html=1;align=left;verticalAlign=middle;resizable=0;points=[];autosize=1;strokeColor=none;fillColor=none;" parent="juQ6OJfFrcmh1SUFTUH2-23" vertex="1">
          <mxGeometry y="120" width="260" height="70" as="geometry" />
        </mxCell>
        <mxCell id="juQ6OJfFrcmh1SUFTUH2-40" value="BusinessCustomer" style="swimlane;whiteSpace=wrap;html=1;fillColor=#d0cee2;strokeColor=#56517e;rounded=1;" parent="1" vertex="1">
          <mxGeometry x="1350" y="270" width="290" height="260" as="geometry" />
        </mxCell>
        <mxCell id="juQ6OJfFrcmh1SUFTUH2-41" value="&lt;div style=&quot;color: rgb(0, 0, 0); font-family: Helvetica; font-size: 12px; font-style: normal; font-variant-ligatures: normal; font-variant-caps: normal; font-weight: 400; letter-spacing: normal; orphans: 2; text-align: left; text-indent: 0px; text-transform: none; widows: 2; word-spacing: 0px; -webkit-text-stroke-width: 0px; white-space: nowrap; background-color: rgb(251, 251, 251); text-decoration-thickness: initial; text-decoration-style: initial; text-decoration-color: initial;&quot;&gt;&lt;b&gt;Attributes&amp;nbsp;&lt;/b&gt;&lt;/div&gt;&lt;span style=&quot;orphans: 2; text-align: left; text-indent: 0px; widows: 2; background-color: rgb(251, 251, 251); text-decoration-thickness: initial; text-decoration-style: initial; text-decoration-color: initial; float: none; display: inline !important;&quot;&gt;&lt;span style=&quot;text-wrap: nowrap;&quot;&gt;CompanyData companyData&amp;nbsp;&lt;/span&gt;&lt;/span&gt;&lt;b style=&quot;color: rgb(0, 0, 0); font-family: Helvetica; font-size: 12px; font-style: normal; font-variant-ligatures: normal; font-variant-caps: normal; letter-spacing: normal; orphans: 2; text-align: left; text-indent: 0px; text-transform: none; widows: 2; word-spacing: 0px; -webkit-text-stroke-width: 0px; white-space: nowrap; background-color: rgb(251, 251, 251); text-decoration-thickness: initial; text-decoration-style: initial; text-decoration-color: initial;&quot;&gt;(private)&lt;/b&gt;&lt;span style=&quot;color: rgb(0, 0, 0); font-family: Helvetica; font-size: 12px; font-style: normal; font-variant-ligatures: normal; font-variant-caps: normal; font-weight: 400; letter-spacing: normal; orphans: 2; text-align: left; text-indent: 0px; text-transform: none; widows: 2; word-spacing: 0px; -webkit-text-stroke-width: 0px; white-space: nowrap; background-color: rgb(251, 251, 251); text-decoration-thickness: initial; text-decoration-style: initial; text-decoration-color: initial; display: inline !important; float: none;&quot;&gt;&amp;nbsp;&lt;br&gt;&lt;/span&gt;&lt;div style=&quot;orphans: 2; text-align: left; text-indent: 0px; widows: 2; background-color: rgb(251, 251, 251); text-decoration-thickness: initial; text-decoration-style: initial; text-decoration-color: initial;&quot;&gt;&lt;span style=&quot;background-color: initial; text-wrap: nowrap;&quot;&gt;Name contactName&amp;nbsp;&lt;/span&gt;&lt;b style=&quot;color: rgb(0, 0, 0); font-family: Helvetica; font-size: 12px; font-style: normal; font-variant-ligatures: normal; font-variant-caps: normal; letter-spacing: normal; text-transform: none; word-spacing: 0px; -webkit-text-stroke-width: 0px; white-space: nowrap;&quot;&gt;(private)&lt;/b&gt;&lt;/div&gt;&lt;div style=&quot;orphans: 2; text-align: left; text-indent: 0px; widows: 2; background-color: rgb(251, 251, 251); text-decoration-thickness: initial; text-decoration-style: initial; text-decoration-color: initial;&quot;&gt;&lt;span style=&quot;color: rgb(0, 0, 0); font-family: Helvetica; font-size: 12px; font-style: normal; font-variant-ligatures: normal; font-variant-caps: normal; letter-spacing: normal; text-transform: none; word-spacing: 0px; -webkit-text-stroke-width: 0px; white-space: nowrap;&quot;&gt;&lt;div style=&quot;&quot;&gt;&lt;br&gt;&lt;/div&gt;&lt;/span&gt;&lt;/div&gt;" style="text;whiteSpace=wrap;html=1;" parent="juQ6OJfFrcmh1SUFTUH2-40" vertex="1">
          <mxGeometry y="20" width="230" height="70" as="geometry" />
        </mxCell>
        <mxCell id="juQ6OJfFrcmh1SUFTUH2-42" value="&lt;div&gt;&lt;b&gt;Getters and setters (public)&lt;/b&gt;&lt;/div&gt;&lt;div&gt;&lt;div&gt;CompanyData getCompanyData()&lt;/div&gt;&lt;div&gt;&lt;div&gt;void setCompanyData(CompanyData companyData);&lt;/div&gt;&lt;/div&gt;&lt;/div&gt;&lt;div&gt;Name getContactName()&lt;br&gt;&lt;/div&gt;&lt;div&gt;void setContactName(Name contactName)&lt;br&gt;&lt;/div&gt;&lt;div&gt;&lt;br style=&quot;&quot;&gt;&lt;/div&gt;" style="text;html=1;align=left;verticalAlign=middle;resizable=0;points=[];autosize=1;strokeColor=none;fillColor=none;" parent="juQ6OJfFrcmh1SUFTUH2-40" vertex="1">
          <mxGeometry y="80" width="310" height="100" as="geometry" />
        </mxCell>
        <mxCell id="juQ6OJfFrcmh1SUFTUH2-43" value="&lt;b&gt;Methods (public)&lt;/b&gt;&lt;div&gt;&lt;div&gt;&lt;div&gt;std::list&amp;lt;std::string&amp;gt;&amp;amp; toStringContactPerson&lt;/div&gt;&lt;div&gt;&amp;nbsp; &amp;nbsp; &amp;nbsp; &amp;nbsp; &amp;nbsp; &amp;nbsp; (std::list&amp;lt;std::string&amp;gt;&amp;amp; customerData)&lt;/div&gt;&lt;/div&gt;&lt;/div&gt;&lt;div&gt;&lt;div&gt;&amp;nbsp; std::list&amp;lt;std::string&amp;gt;&amp;amp; toStringCompanyData&lt;/div&gt;&lt;div&gt;&amp;nbsp; &amp;nbsp; &amp;nbsp; &amp;nbsp; &amp;nbsp; &amp;nbsp; (std::list&amp;lt;std::string&amp;gt;&amp;amp; customerData)&lt;/div&gt;&lt;/div&gt;&lt;div&gt;std::list&amp;lt;std::string&amp;gt; toString() override&lt;br&gt;&lt;/div&gt;" style="text;html=1;align=left;verticalAlign=middle;resizable=0;points=[];autosize=1;strokeColor=none;fillColor=none;" parent="juQ6OJfFrcmh1SUFTUH2-40" vertex="1">
          <mxGeometry y="160" width="260" height="100" as="geometry" />
        </mxCell>
        <mxCell id="juQ6OJfFrcmh1SUFTUH2-78" value="Struct: Address" style="swimlane;whiteSpace=wrap;html=1;fillColor=#ffe6cc;strokeColor=#d79b00;dashed=1;" parent="1" vertex="1">
          <mxGeometry x="1500" y="65" width="200" height="110" as="geometry" />
        </mxCell>
        <mxCell id="juQ6OJfFrcmh1SUFTUH2-79" value="&lt;div&gt;&amp;nbsp;int streetNumber;&lt;/div&gt;&lt;div&gt;&amp;nbsp;std::string street;&lt;/div&gt;&lt;div&gt;&amp;nbsp;std::string city;&lt;/div&gt;&lt;div&gt;&amp;nbsp;std::string country;&amp;nbsp;&lt;/div&gt;&lt;div&gt;&amp;nbsp;std::string postalCode;&lt;/div&gt;" style="text;html=1;align=left;verticalAlign=middle;resizable=0;points=[];autosize=1;strokeColor=none;fillColor=none;" parent="juQ6OJfFrcmh1SUFTUH2-78" vertex="1">
          <mxGeometry y="25" width="150" height="90" as="geometry" />
        </mxCell>
        <mxCell id="juQ6OJfFrcmh1SUFTUH2-91" style="edgeStyle=orthogonalEdgeStyle;rounded=0;orthogonalLoop=1;jettySize=auto;html=1;entryX=1;entryY=0.5;entryDx=0;entryDy=0;endArrow=diamond;endFill=1;" parent="1" source="juQ6OJfFrcmh1SUFTUH2-80" target="juQ6OJfFrcmh1SUFTUH2-21" edge="1">
          <mxGeometry relative="1" as="geometry" />
        </mxCell>
        <mxCell id="juQ6OJfFrcmh1SUFTUH2-92" style="edgeStyle=orthogonalEdgeStyle;rounded=0;orthogonalLoop=1;jettySize=auto;html=1;exitX=0.75;exitY=0;exitDx=0;exitDy=0;entryX=0;entryY=0.5;entryDx=0;entryDy=0;endArrow=diamond;endFill=1;" parent="1" source="juQ6OJfFrcmh1SUFTUH2-80" target="juQ6OJfFrcmh1SUFTUH2-41" edge="1">
          <mxGeometry relative="1" as="geometry" />
        </mxCell>
        <mxCell id="juQ6OJfFrcmh1SUFTUH2-80" value="Struct: Name" style="swimlane;whiteSpace=wrap;html=1;fillColor=#ffe6cc;strokeColor=#d79b00;dashed=1;" parent="1" vertex="1">
          <mxGeometry x="1100" y="480" width="200" height="85" as="geometry" />
        </mxCell>
        <mxCell id="juQ6OJfFrcmh1SUFTUH2-81" value="&lt;div&gt;std::string name;&lt;/div&gt;&lt;div&gt;std::string middleName;&lt;/div&gt;&lt;div&gt;std::string lastName;&lt;/div&gt;" style="text;html=1;align=left;verticalAlign=middle;resizable=0;points=[];autosize=1;strokeColor=none;fillColor=none;" parent="juQ6OJfFrcmh1SUFTUH2-80" vertex="1">
          <mxGeometry y="25" width="150" height="60" as="geometry" />
        </mxCell>
        <mxCell id="juQ6OJfFrcmh1SUFTUH2-90" style="edgeStyle=orthogonalEdgeStyle;rounded=0;orthogonalLoop=1;jettySize=auto;html=1;entryX=1;entryY=0.25;entryDx=0;entryDy=0;startArrow=none;startFill=0;endArrow=diamond;endFill=1;" parent="1" source="juQ6OJfFrcmh1SUFTUH2-86" target="juQ6OJfFrcmh1SUFTUH2-40" edge="1">
          <mxGeometry relative="1" as="geometry" />
        </mxCell>
        <mxCell id="juQ6OJfFrcmh1SUFTUH2-86" value="Struct: CompanyData" style="swimlane;whiteSpace=wrap;html=1;fillColor=#ffe6cc;strokeColor=#d79b00;dashed=1;" parent="1" vertex="1">
          <mxGeometry x="1750" y="250" width="200" height="65" as="geometry" />
        </mxCell>
        <mxCell id="juQ6OJfFrcmh1SUFTUH2-87" value="&lt;div&gt;std::string name;&lt;/div&gt;&lt;div&gt;std::string CID;&lt;/div&gt;" style="text;html=1;align=left;verticalAlign=middle;resizable=0;points=[];autosize=1;strokeColor=none;fillColor=none;" parent="juQ6OJfFrcmh1SUFTUH2-86" vertex="1">
          <mxGeometry y="25" width="110" height="40" as="geometry" />
        </mxCell>
        <mxCell id="YNee3jmiKFVP3PC7Kqb_-3" style="edgeStyle=orthogonalEdgeStyle;rounded=0;orthogonalLoop=1;jettySize=auto;html=1;entryX=0.75;entryY=1;entryDx=0;entryDy=0;endArrow=block;endFill=0;" parent="1" source="juQ6OJfFrcmh1SUFTUH2-40" target="juQ6OJfFrcmh1SUFTUH2-23" edge="1">
          <mxGeometry relative="1" as="geometry" />
        </mxCell>
        <mxCell id="YNee3jmiKFVP3PC7Kqb_-5" style="edgeStyle=orthogonalEdgeStyle;rounded=0;orthogonalLoop=1;jettySize=auto;html=1;entryX=1;entryY=0.5;entryDx=0;entryDy=0;endArrow=diamond;endFill=1;" parent="1" source="juQ6OJfFrcmh1SUFTUH2-79" target="juQ6OJfFrcmh1SUFTUH2-23" edge="1">
          <mxGeometry relative="1" as="geometry" />
        </mxCell>
        <mxCell id="YNee3jmiKFVP3PC7Kqb_-11" style="edgeStyle=orthogonalEdgeStyle;rounded=0;orthogonalLoop=1;jettySize=auto;html=1;entryX=1;entryY=0.5;entryDx=0;entryDy=0;endArrow=none;endFill=0;" parent="1" source="juQ6OJfFrcmh1SUFTUH2-25" target="juQ6OJfFrcmh1SUFTUH2-8" edge="1">
          <mxGeometry relative="1" as="geometry" />
        </mxCell>
        <mxCell id="YNee3jmiKFVP3PC7Kqb_-12" value="1" style="text;html=1;align=center;verticalAlign=middle;resizable=0;points=[];autosize=1;strokeColor=none;fillColor=none;" parent="1" vertex="1">
          <mxGeometry x="825" y="118" width="30" height="30" as="geometry" />
        </mxCell>
        <mxCell id="YNee3jmiKFVP3PC7Kqb_-13" value="2" style="text;html=1;align=center;verticalAlign=middle;resizable=0;points=[];autosize=1;strokeColor=none;fillColor=none;" parent="1" vertex="1">
          <mxGeometry x="1085" y="118" width="30" height="30" as="geometry" />
        </mxCell>
      </root>
    </mxGraphModel>
  </diagram>
</mxfile>
